REM DIRINDEX 1\2,1\3,1\4,1\5
REM DIRNAME folder01,folder02,folder03,folder04,folder05
TITLE ""
FILE "1Q_t_0482-0491.mp3" MP3
  TRACK 01 AUDIO
    TITLE "3:cjc004_2348"
    INDEX 01 00:00:00
  TRACK 02 AUDIO
    TITLE "0:"
    INDEX 01 00:01:01
  TRACK 03 AUDIO
    TITLE "4:cjc004_2349"
    INDEX 01 00:01:34
  TRACK 04 AUDIO
    TITLE "0:"
    INDEX 01 00:02:40
  TRACK 05 AUDIO
    TITLE "5:cjc004_2350"
    INDEX 01 00:02:67
  TRACK 06 AUDIO
    TITLE "0:"
    INDEX 01 00:09:36
  TRACK 07 AUDIO
    TITLE "3:cjc004_2351"
    INDEX 01 00:10:14
  TRACK 08 AUDIO
    TITLE "0:"
    INDEX 01 00:11:15
  TRACK 09 AUDIO
    TITLE "4:cjc004_2352"
    INDEX 01 00:11:44
  TRACK 10 AUDIO
    TITLE "0:"
    INDEX 01 00:12:63
  TRACK 11 AUDIO
    TITLE "5:cjc004_2353"
    INDEX 01 00:13:16
  TRACK 12 AUDIO
    TITLE "0:"
    INDEX 01 00:17:12
  TRACK 13 AUDIO
    TITLE "3:cjc004_2354"
    INDEX 01 00:17:63
  TRACK 14 AUDIO
    TITLE "0:"
    INDEX 01 00:18:70
  TRACK 15 AUDIO
    TITLE "4:cjc004_2355"
    INDEX 01 00:19:24
  TRACK 16 AUDIO
    TITLE "0:"
    INDEX 01 00:21:06
  TRACK 17 AUDIO
    TITLE "5:cjc004_2356"
    INDEX 01 00:21:31
  TRACK 18 AUDIO
    TITLE "0:"
    INDEX 01 00:25:37
  TRACK 19 AUDIO
    TITLE "3:cjc004_2357"
    INDEX 01 00:26:15
  TRACK 20 AUDIO
    TITLE "0:"
    INDEX 01 00:27:22
  TRACK 21 AUDIO
    TITLE "4:cjc004_2358"
    INDEX 01 00:27:51
  TRACK 22 AUDIO
    TITLE "0:"
    INDEX 01 00:29:13
  TRACK 23 AUDIO
    TITLE "5:cjc004_2359"
    INDEX 01 00:29:36
  TRACK 24 AUDIO
    TITLE "0:"
    INDEX 01 00:33:71
  TRACK 25 AUDIO
    TITLE "3:cjc004_2360"
    INDEX 01 00:34:51
  TRACK 26 AUDIO
    TITLE "0:"
    INDEX 01 00:35:51
  TRACK 27 AUDIO
    TITLE "4:cjc004_2361"
    INDEX 01 00:36:03
  TRACK 28 AUDIO
    TITLE "0:"
    INDEX 01 00:37:07
  TRACK 29 AUDIO
    TITLE "5:cjc004_2362"
    INDEX 01 00:37:30
  TRACK 30 AUDIO
    TITLE "0:"
    INDEX 01 00:43:13
  TRACK 31 AUDIO
    TITLE "3:cjc004_2363"
    INDEX 01 00:43:74
  TRACK 32 AUDIO
    TITLE "0:"
    INDEX 01 00:45:06
  TRACK 33 AUDIO
    TITLE "4:cjc004_2364"
    INDEX 01 00:45:33
  TRACK 34 AUDIO
    TITLE "0:"
    INDEX 01 00:46:49
  TRACK 35 AUDIO
    TITLE "5:cjc004_2365"
    INDEX 01 00:46:72
  TRACK 36 AUDIO
    TITLE "0:"
    INDEX 01 00:52:06
  TRACK 37 AUDIO
    TITLE "3:cjc004_2366"
    INDEX 01 00:52:61
  TRACK 38 AUDIO
    TITLE "0:"
    INDEX 01 00:54:07
  TRACK 39 AUDIO
    TITLE "4:cjc004_2367"
    INDEX 01 00:54:34
  TRACK 40 AUDIO
    TITLE "0:"
    INDEX 01 00:55:57
  TRACK 41 AUDIO
    TITLE "5:cjc004_2368"
    INDEX 01 00:56:08
  TRACK 42 AUDIO
    TITLE "0:"
    INDEX 01 00:59:61
  TRACK 43 AUDIO
    TITLE "3:cjc004_2369"
    INDEX 01 01:00:37
  TRACK 44 AUDIO
    TITLE "0:"
    INDEX 01 01:01:58
  TRACK 45 AUDIO
    TITLE "4:cjc004_2370"
    INDEX 01 01:02:10
  TRACK 46 AUDIO
    TITLE "0:"
    INDEX 01 01:03:31
  TRACK 47 AUDIO
    TITLE "5:cjc004_2371"
    INDEX 01 01:03:59
  TRACK 48 AUDIO
    TITLE "0:"
    INDEX 01 01:07:39
  TRACK 49 AUDIO
    TITLE "3:cjc004_2372"
    INDEX 01 01:08:15
  TRACK 50 AUDIO
    TITLE "0:"
    INDEX 01 01:09:36
  TRACK 51 AUDIO
    TITLE "4:cjc004_2373"
    INDEX 01 01:09:63
  TRACK 52 AUDIO
    TITLE "0:"
    INDEX 01 01:11:17
  TRACK 53 AUDIO
    TITLE "5:cjc004_2374"
    INDEX 01 01:11:37
  TRACK 54 AUDIO
    TITLE "0:"
    INDEX 01 01:16:30
  TRACK 55 AUDIO
    TITLE "3:cjc004_2375"
    INDEX 01 01:17:04
  TRACK 56 AUDIO
    TITLE "0:"
    INDEX 01 01:18:23
  TRACK 57 AUDIO
    TITLE "4:cjc004_2376"
    INDEX 01 01:18:54
  TRACK 58 AUDIO
    TITLE "0:"
    INDEX 01 01:20:00
  TRACK 59 AUDIO
    TITLE "5:cjc004_2377"
    INDEX 01 01:20:18
  TRACK 60 AUDIO
    TITLE "0:"
    INDEX 01 01:25:09
